<mxfile host="app.diagrams.net" modified="2023-07-18T01:49:11.364Z" agent="Mozilla/5.0 (Windows NT 10.0; Win64; x64) AppleWebKit/537.36 (KHTML, like Gecko) Chrome/114.0.0.0 Safari/537.36 Edg/114.0.1823.82" etag="iaosJIgjoiNi0e8IFGoi" version="21.6.2" type="github">
  <diagram name="第 1 页" id="XFL76Dauy9MVUNTW5OHj">
    <mxGraphModel dx="739" dy="470" grid="1" gridSize="10" guides="1" tooltips="1" connect="1" arrows="1" fold="1" page="1" pageScale="1" pageWidth="827" pageHeight="1169" math="0" shadow="0">
      <root>
        <mxCell id="0" />
        <mxCell id="1" parent="0" />
        <mxCell id="amrkidjvkdgPa6vXR5mX-1" value="" style="rounded=0;whiteSpace=wrap;html=1;fillColor=#1ba1e2;strokeColor=#006EAF;fontColor=#ffffff;fontStyle=1" vertex="1" parent="1">
          <mxGeometry x="70" y="190" width="350" height="170" as="geometry" />
        </mxCell>
        <mxCell id="amrkidjvkdgPa6vXR5mX-2" value="" style="rounded=0;whiteSpace=wrap;html=1;fillColor=#60a917;strokeColor=#2D7600;fontColor=#ffffff;fontStyle=1" vertex="1" parent="1">
          <mxGeometry x="90" y="210" width="30" height="130" as="geometry" />
        </mxCell>
        <mxCell id="amrkidjvkdgPa6vXR5mX-3" value="" style="rounded=0;whiteSpace=wrap;html=1;fillColor=#e51400;strokeColor=#B20000;fontColor=#ffffff;fontStyle=1" vertex="1" parent="1">
          <mxGeometry x="140" y="210" width="30" height="130" as="geometry" />
        </mxCell>
        <mxCell id="amrkidjvkdgPa6vXR5mX-5" value="" style="rounded=0;whiteSpace=wrap;html=1;fillColor=#e51400;strokeColor=#B20000;fontColor=#ffffff;fontStyle=1" vertex="1" parent="1">
          <mxGeometry x="200" y="210" width="30" height="130" as="geometry" />
        </mxCell>
        <mxCell id="amrkidjvkdgPa6vXR5mX-6" value="" style="rounded=0;whiteSpace=wrap;html=1;fillColor=#e51400;strokeColor=#B20000;fontColor=#ffffff;fontStyle=1" vertex="1" parent="1">
          <mxGeometry x="360" y="210" width="30" height="130" as="geometry" />
        </mxCell>
        <mxCell id="amrkidjvkdgPa6vXR5mX-8" value="" style="rounded=0;whiteSpace=wrap;html=1;fillColor=#e51400;strokeColor=#B20000;fontColor=#ffffff;fontStyle=1" vertex="1" parent="1">
          <mxGeometry x="250" y="210" width="30" height="130" as="geometry" />
        </mxCell>
        <mxCell id="amrkidjvkdgPa6vXR5mX-9" value="" style="rounded=0;whiteSpace=wrap;html=1;fillColor=#60a917;strokeColor=#2D7600;fontColor=#ffffff;fontStyle=1" vertex="1" parent="1">
          <mxGeometry x="310" y="210" width="30" height="130" as="geometry" />
        </mxCell>
        <mxCell id="amrkidjvkdgPa6vXR5mX-12" value="" style="rounded=0;whiteSpace=wrap;html=1;fillColor=#fad9d5;strokeColor=#ae4132;fontStyle=1" vertex="1" parent="1">
          <mxGeometry x="420" y="190" width="170" height="170" as="geometry" />
        </mxCell>
        <mxCell id="amrkidjvkdgPa6vXR5mX-13" value="&lt;span&gt;1&lt;/span&gt;" style="rounded=0;whiteSpace=wrap;html=1;fillColor=#60a917;strokeColor=#2D7600;fontColor=#ffffff;fontStyle=1" vertex="1" parent="1">
          <mxGeometry x="450" y="210" width="30" height="130" as="geometry" />
        </mxCell>
        <mxCell id="amrkidjvkdgPa6vXR5mX-14" value="&lt;span&gt;1&lt;/span&gt;" style="rounded=0;whiteSpace=wrap;html=1;fillColor=#60a917;strokeColor=#2D7600;fontColor=#ffffff;fontStyle=1" vertex="1" parent="1">
          <mxGeometry x="520" y="210" width="30" height="130" as="geometry" />
        </mxCell>
        <mxCell id="amrkidjvkdgPa6vXR5mX-15" value="" style="rounded=0;whiteSpace=wrap;html=1;fillColor=#e3c800;strokeColor=#B09500;fontColor=#000000;fontStyle=1" vertex="1" parent="1">
          <mxGeometry x="590" y="190" width="170" height="170" as="geometry" />
        </mxCell>
        <mxCell id="amrkidjvkdgPa6vXR5mX-16" style="edgeStyle=orthogonalEdgeStyle;rounded=0;orthogonalLoop=1;jettySize=auto;html=1;entryX=0.5;entryY=0;entryDx=0;entryDy=0;exitX=0.5;exitY=0;exitDx=0;exitDy=0;fontStyle=1" edge="1" parent="1" source="amrkidjvkdgPa6vXR5mX-2" target="amrkidjvkdgPa6vXR5mX-13">
          <mxGeometry relative="1" as="geometry">
            <Array as="points">
              <mxPoint x="105" y="170" />
              <mxPoint x="465" y="170" />
            </Array>
          </mxGeometry>
        </mxCell>
        <mxCell id="amrkidjvkdgPa6vXR5mX-18" value="Eden" style="text;html=1;align=center;verticalAlign=middle;resizable=0;points=[];autosize=1;strokeColor=none;fillColor=none;fontStyle=1" vertex="1" parent="1">
          <mxGeometry x="220" y="378" width="50" height="30" as="geometry" />
        </mxCell>
        <mxCell id="amrkidjvkdgPa6vXR5mX-19" value="From" style="text;html=1;align=center;verticalAlign=middle;resizable=0;points=[];autosize=1;strokeColor=none;fillColor=none;fontStyle=1" vertex="1" parent="1">
          <mxGeometry x="475" y="368" width="50" height="30" as="geometry" />
        </mxCell>
        <mxCell id="amrkidjvkdgPa6vXR5mX-20" value="To" style="text;html=1;align=center;verticalAlign=middle;resizable=0;points=[];autosize=1;strokeColor=none;fillColor=none;fontStyle=1" vertex="1" parent="1">
          <mxGeometry x="660" y="368" width="40" height="30" as="geometry" />
        </mxCell>
        <mxCell id="amrkidjvkdgPa6vXR5mX-21" value="" style="rounded=0;whiteSpace=wrap;html=1;fillColor=#1ba1e2;strokeColor=#006EAF;fontColor=#ffffff;fontStyle=1" vertex="1" parent="1">
          <mxGeometry x="70" y="530" width="350" height="170" as="geometry" />
        </mxCell>
        <mxCell id="amrkidjvkdgPa6vXR5mX-22" value="" style="rounded=0;whiteSpace=wrap;html=1;fillColor=#e51400;strokeColor=#B20000;fontColor=#ffffff;fontStyle=1" vertex="1" parent="1">
          <mxGeometry x="90" y="550" width="30" height="130" as="geometry" />
        </mxCell>
        <mxCell id="amrkidjvkdgPa6vXR5mX-23" value="" style="rounded=0;whiteSpace=wrap;html=1;fillColor=#e51400;strokeColor=#B20000;fontColor=#ffffff;fontStyle=1" vertex="1" parent="1">
          <mxGeometry x="140" y="550" width="30" height="130" as="geometry" />
        </mxCell>
        <mxCell id="amrkidjvkdgPa6vXR5mX-24" value="" style="rounded=0;whiteSpace=wrap;html=1;fillColor=#60a917;strokeColor=#2D7600;fontColor=#ffffff;fontStyle=1" vertex="1" parent="1">
          <mxGeometry x="200" y="550" width="30" height="130" as="geometry" />
        </mxCell>
        <mxCell id="amrkidjvkdgPa6vXR5mX-25" value="" style="rounded=0;whiteSpace=wrap;html=1;fillColor=#e51400;strokeColor=#B20000;fontColor=#ffffff;fontStyle=1" vertex="1" parent="1">
          <mxGeometry x="370" y="550" width="20" height="130" as="geometry" />
        </mxCell>
        <mxCell id="amrkidjvkdgPa6vXR5mX-26" value="" style="rounded=0;whiteSpace=wrap;html=1;fillColor=#e51400;strokeColor=#B20000;fontColor=#ffffff;fontStyle=1" vertex="1" parent="1">
          <mxGeometry x="250" y="550" width="30" height="130" as="geometry" />
        </mxCell>
        <mxCell id="amrkidjvkdgPa6vXR5mX-28" value="" style="rounded=0;whiteSpace=wrap;html=1;fillColor=#e51400;strokeColor=#B20000;fontColor=#ffffff;fontStyle=1" vertex="1" parent="1">
          <mxGeometry x="310" y="550" width="30" height="130" as="geometry" />
        </mxCell>
        <mxCell id="amrkidjvkdgPa6vXR5mX-29" value="" style="rounded=0;whiteSpace=wrap;html=1;fillColor=#fad9d5;strokeColor=#ae4132;fontStyle=1" vertex="1" parent="1">
          <mxGeometry x="420" y="530" width="170" height="170" as="geometry" />
        </mxCell>
        <mxCell id="amrkidjvkdgPa6vXR5mX-30" value="&lt;span&gt;1&lt;/span&gt;" style="rounded=0;whiteSpace=wrap;html=1;fillColor=#60a917;strokeColor=#2D7600;fontColor=#ffffff;fontStyle=1" vertex="1" parent="1">
          <mxGeometry x="450" y="550" width="30" height="130" as="geometry" />
        </mxCell>
        <mxCell id="amrkidjvkdgPa6vXR5mX-31" value="&lt;span&gt;1&lt;/span&gt;" style="rounded=0;whiteSpace=wrap;html=1;fillColor=#60a917;strokeColor=#2D7600;fontColor=#ffffff;fontStyle=1" vertex="1" parent="1">
          <mxGeometry x="520" y="550" width="30" height="130" as="geometry" />
        </mxCell>
        <mxCell id="amrkidjvkdgPa6vXR5mX-32" value="" style="rounded=0;whiteSpace=wrap;html=1;fillColor=#e3c800;strokeColor=#B09500;fontColor=#000000;fontStyle=1" vertex="1" parent="1">
          <mxGeometry x="590" y="530" width="170" height="170" as="geometry" />
        </mxCell>
        <mxCell id="amrkidjvkdgPa6vXR5mX-34" value="Eden" style="text;html=1;align=center;verticalAlign=middle;resizable=0;points=[];autosize=1;strokeColor=none;fillColor=none;fontStyle=1" vertex="1" parent="1">
          <mxGeometry x="220" y="718" width="50" height="30" as="geometry" />
        </mxCell>
        <mxCell id="amrkidjvkdgPa6vXR5mX-35" value="From" style="text;html=1;align=center;verticalAlign=middle;resizable=0;points=[];autosize=1;strokeColor=none;fillColor=none;fontStyle=1" vertex="1" parent="1">
          <mxGeometry x="475" y="708" width="50" height="30" as="geometry" />
        </mxCell>
        <mxCell id="amrkidjvkdgPa6vXR5mX-36" value="To" style="text;html=1;align=center;verticalAlign=middle;resizable=0;points=[];autosize=1;strokeColor=none;fillColor=none;fontStyle=1" vertex="1" parent="1">
          <mxGeometry x="660" y="708" width="40" height="30" as="geometry" />
        </mxCell>
        <mxCell id="amrkidjvkdgPa6vXR5mX-37" value="&lt;span&gt;2&lt;/span&gt;" style="rounded=0;whiteSpace=wrap;html=1;fillColor=#60a917;strokeColor=#2D7600;fontColor=#ffffff;fontStyle=1" vertex="1" parent="1">
          <mxGeometry x="610" y="550" width="30" height="130" as="geometry" />
        </mxCell>
        <mxCell id="amrkidjvkdgPa6vXR5mX-38" value="&lt;span&gt;1&lt;/span&gt;" style="rounded=0;whiteSpace=wrap;html=1;fillColor=#60a917;strokeColor=#2D7600;fontColor=#ffffff;fontStyle=1" vertex="1" parent="1">
          <mxGeometry x="665" y="550" width="30" height="130" as="geometry" />
        </mxCell>
        <mxCell id="amrkidjvkdgPa6vXR5mX-39" value="&lt;span&gt;2&lt;/span&gt;" style="rounded=0;whiteSpace=wrap;html=1;fillColor=#60a917;strokeColor=#2D7600;fontColor=#ffffff;fontStyle=1" vertex="1" parent="1">
          <mxGeometry x="720" y="550" width="30" height="130" as="geometry" />
        </mxCell>
        <mxCell id="amrkidjvkdgPa6vXR5mX-17" style="edgeStyle=orthogonalEdgeStyle;rounded=0;orthogonalLoop=1;jettySize=auto;html=1;entryX=0.5;entryY=0;entryDx=0;entryDy=0;exitX=0.5;exitY=0;exitDx=0;exitDy=0;fontStyle=1" edge="1" parent="1" source="amrkidjvkdgPa6vXR5mX-9" target="amrkidjvkdgPa6vXR5mX-14">
          <mxGeometry relative="1" as="geometry">
            <Array as="points">
              <mxPoint x="325" y="150" />
              <mxPoint x="535" y="150" />
            </Array>
          </mxGeometry>
        </mxCell>
        <mxCell id="amrkidjvkdgPa6vXR5mX-40" style="edgeStyle=orthogonalEdgeStyle;rounded=0;orthogonalLoop=1;jettySize=auto;html=1;entryX=0.5;entryY=0;entryDx=0;entryDy=0;exitX=0.5;exitY=0;exitDx=0;exitDy=0;fontStyle=1" edge="1" parent="1" source="amrkidjvkdgPa6vXR5mX-24" target="amrkidjvkdgPa6vXR5mX-38">
          <mxGeometry relative="1" as="geometry">
            <Array as="points">
              <mxPoint x="215" y="500" />
              <mxPoint x="680" y="500" />
            </Array>
          </mxGeometry>
        </mxCell>
        <mxCell id="amrkidjvkdgPa6vXR5mX-41" style="edgeStyle=orthogonalEdgeStyle;rounded=0;orthogonalLoop=1;jettySize=auto;html=1;entryX=0.5;entryY=0;entryDx=0;entryDy=0;exitX=0.5;exitY=0;exitDx=0;exitDy=0;fontStyle=1" edge="1" parent="1" source="amrkidjvkdgPa6vXR5mX-30" target="amrkidjvkdgPa6vXR5mX-37">
          <mxGeometry relative="1" as="geometry">
            <Array as="points">
              <mxPoint x="465" y="510" />
              <mxPoint x="625" y="510" />
            </Array>
          </mxGeometry>
        </mxCell>
        <mxCell id="amrkidjvkdgPa6vXR5mX-42" style="edgeStyle=orthogonalEdgeStyle;rounded=0;orthogonalLoop=1;jettySize=auto;html=1;entryX=0.5;entryY=0;entryDx=0;entryDy=0;exitX=0.5;exitY=0;exitDx=0;exitDy=0;fontStyle=1" edge="1" parent="1" source="amrkidjvkdgPa6vXR5mX-31" target="amrkidjvkdgPa6vXR5mX-39">
          <mxGeometry relative="1" as="geometry">
            <Array as="points">
              <mxPoint x="535" y="490" />
              <mxPoint x="735" y="490" />
            </Array>
          </mxGeometry>
        </mxCell>
        <mxCell id="amrkidjvkdgPa6vXR5mX-43" value="" style="rounded=0;whiteSpace=wrap;html=1;fillColor=#1ba1e2;strokeColor=#006EAF;fontColor=#ffffff;fontStyle=1" vertex="1" parent="1">
          <mxGeometry x="90" y="920" width="350" height="170" as="geometry" />
        </mxCell>
        <mxCell id="amrkidjvkdgPa6vXR5mX-44" value="" style="rounded=0;whiteSpace=wrap;html=1;fillColor=#e51400;strokeColor=#B20000;fontColor=#ffffff;fontStyle=1" vertex="1" parent="1">
          <mxGeometry x="110" y="940" width="30" height="130" as="geometry" />
        </mxCell>
        <mxCell id="amrkidjvkdgPa6vXR5mX-45" value="" style="rounded=0;whiteSpace=wrap;html=1;fillColor=#60a917;strokeColor=#2D7600;fontColor=#ffffff;fontStyle=1" vertex="1" parent="1">
          <mxGeometry x="160" y="940" width="30" height="130" as="geometry" />
        </mxCell>
        <mxCell id="amrkidjvkdgPa6vXR5mX-46" value="" style="rounded=0;whiteSpace=wrap;html=1;fillColor=#e51400;strokeColor=#B20000;fontColor=#ffffff;fontStyle=1" vertex="1" parent="1">
          <mxGeometry x="220" y="940" width="30" height="130" as="geometry" />
        </mxCell>
        <mxCell id="amrkidjvkdgPa6vXR5mX-47" value="" style="rounded=0;whiteSpace=wrap;html=1;fillColor=#e51400;strokeColor=#B20000;fontColor=#ffffff;fontStyle=1" vertex="1" parent="1">
          <mxGeometry x="390" y="940" width="20" height="130" as="geometry" />
        </mxCell>
        <mxCell id="amrkidjvkdgPa6vXR5mX-48" value="" style="rounded=0;whiteSpace=wrap;html=1;fillColor=#e51400;strokeColor=#B20000;fontColor=#ffffff;fontStyle=1" vertex="1" parent="1">
          <mxGeometry x="270" y="940" width="30" height="130" as="geometry" />
        </mxCell>
        <mxCell id="amrkidjvkdgPa6vXR5mX-49" value="" style="rounded=0;whiteSpace=wrap;html=1;fillColor=#e51400;strokeColor=#B20000;fontColor=#ffffff;fontStyle=1" vertex="1" parent="1">
          <mxGeometry x="330" y="940" width="30" height="130" as="geometry" />
        </mxCell>
        <mxCell id="amrkidjvkdgPa6vXR5mX-50" value="" style="rounded=0;whiteSpace=wrap;html=1;fillColor=#fad9d5;strokeColor=#ae4132;fontStyle=1" vertex="1" parent="1">
          <mxGeometry x="440" y="920" width="170" height="170" as="geometry" />
        </mxCell>
        <mxCell id="amrkidjvkdgPa6vXR5mX-51" value="&lt;span&gt;1&lt;/span&gt;" style="rounded=0;whiteSpace=wrap;html=1;fillColor=#60a917;strokeColor=#2D7600;fontColor=#ffffff;fontStyle=1" vertex="1" parent="1">
          <mxGeometry x="470" y="940" width="30" height="130" as="geometry" />
        </mxCell>
        <mxCell id="amrkidjvkdgPa6vXR5mX-52" value="&lt;span&gt;2&lt;/span&gt;" style="rounded=0;whiteSpace=wrap;html=1;fillColor=#60a917;strokeColor=#2D7600;fontColor=#ffffff;fontStyle=1" vertex="1" parent="1">
          <mxGeometry x="540" y="940" width="30" height="130" as="geometry" />
        </mxCell>
        <mxCell id="amrkidjvkdgPa6vXR5mX-53" value="" style="rounded=0;whiteSpace=wrap;html=1;fillColor=#e3c800;strokeColor=#B09500;fontColor=#000000;fontStyle=1" vertex="1" parent="1">
          <mxGeometry x="610" y="920" width="170" height="170" as="geometry" />
        </mxCell>
        <mxCell id="amrkidjvkdgPa6vXR5mX-54" value="Eden" style="text;html=1;align=center;verticalAlign=middle;resizable=0;points=[];autosize=1;strokeColor=none;fillColor=none;fontStyle=1" vertex="1" parent="1">
          <mxGeometry x="240" y="1108" width="50" height="30" as="geometry" />
        </mxCell>
        <mxCell id="amrkidjvkdgPa6vXR5mX-55" value="From" style="text;html=1;align=center;verticalAlign=middle;resizable=0;points=[];autosize=1;strokeColor=none;fillColor=none;fontStyle=1" vertex="1" parent="1">
          <mxGeometry x="495" y="1098" width="50" height="30" as="geometry" />
        </mxCell>
        <mxCell id="amrkidjvkdgPa6vXR5mX-56" value="To" style="text;html=1;align=center;verticalAlign=middle;resizable=0;points=[];autosize=1;strokeColor=none;fillColor=none;fontStyle=1" vertex="1" parent="1">
          <mxGeometry x="680" y="1098" width="40" height="30" as="geometry" />
        </mxCell>
        <mxCell id="amrkidjvkdgPa6vXR5mX-68" style="edgeStyle=orthogonalEdgeStyle;rounded=0;orthogonalLoop=1;jettySize=auto;html=1;entryX=0.5;entryY=0;entryDx=0;entryDy=0;exitX=0.5;exitY=0;exitDx=0;exitDy=0;fontStyle=1" edge="1" parent="1" source="amrkidjvkdgPa6vXR5mX-57" target="amrkidjvkdgPa6vXR5mX-52">
          <mxGeometry relative="1" as="geometry">
            <Array as="points">
              <mxPoint x="645" y="900" />
              <mxPoint x="555" y="900" />
            </Array>
          </mxGeometry>
        </mxCell>
        <mxCell id="amrkidjvkdgPa6vXR5mX-57" value="&lt;span&gt;1&lt;/span&gt;" style="rounded=0;whiteSpace=wrap;html=1;fillColor=#60a917;strokeColor=#2D7600;fontColor=#ffffff;fontStyle=1" vertex="1" parent="1">
          <mxGeometry x="630" y="940" width="30" height="130" as="geometry" />
        </mxCell>
        <mxCell id="amrkidjvkdgPa6vXR5mX-58" value="&lt;span&gt;15&lt;/span&gt;" style="rounded=0;whiteSpace=wrap;html=1;fillColor=#60a917;strokeColor=#2D7600;fontColor=#ffffff;fontStyle=1" vertex="1" parent="1">
          <mxGeometry x="685" y="940" width="30" height="130" as="geometry" />
        </mxCell>
        <mxCell id="amrkidjvkdgPa6vXR5mX-59" value="&lt;span&gt;15&lt;/span&gt;" style="rounded=0;whiteSpace=wrap;html=1;fillColor=#60a917;strokeColor=#2D7600;fontColor=#ffffff;fontStyle=1" vertex="1" parent="1">
          <mxGeometry x="740" y="940" width="30" height="130" as="geometry" />
        </mxCell>
        <mxCell id="amrkidjvkdgPa6vXR5mX-63" value="" style="rounded=0;whiteSpace=wrap;html=1;fillColor=#6a00ff;fontColor=#ffffff;strokeColor=#3700CC;fontStyle=1" vertex="1" parent="1">
          <mxGeometry x="780" y="920" width="290" height="170" as="geometry" />
        </mxCell>
        <mxCell id="amrkidjvkdgPa6vXR5mX-64" value="&lt;span&gt;16&lt;/span&gt;" style="rounded=0;whiteSpace=wrap;html=1;fillColor=#60a917;strokeColor=#2D7600;fontColor=#ffffff;fontStyle=1" vertex="1" parent="1">
          <mxGeometry x="800" y="940" width="30" height="130" as="geometry" />
        </mxCell>
        <mxCell id="amrkidjvkdgPa6vXR5mX-65" value="&lt;span&gt;16&lt;/span&gt;" style="rounded=0;whiteSpace=wrap;html=1;fillColor=#60a917;strokeColor=#2D7600;fontColor=#ffffff;fontStyle=1" vertex="1" parent="1">
          <mxGeometry x="855" y="940" width="30" height="130" as="geometry" />
        </mxCell>
        <mxCell id="amrkidjvkdgPa6vXR5mX-66" style="edgeStyle=orthogonalEdgeStyle;rounded=0;orthogonalLoop=1;jettySize=auto;html=1;entryX=0.5;entryY=0;entryDx=0;entryDy=0;exitX=0.5;exitY=0;exitDx=0;exitDy=0;fontStyle=1" edge="1" parent="1" source="amrkidjvkdgPa6vXR5mX-58" target="amrkidjvkdgPa6vXR5mX-64">
          <mxGeometry relative="1" as="geometry">
            <Array as="points">
              <mxPoint x="700" y="910" />
              <mxPoint x="815" y="910" />
            </Array>
          </mxGeometry>
        </mxCell>
        <mxCell id="amrkidjvkdgPa6vXR5mX-67" style="edgeStyle=orthogonalEdgeStyle;rounded=0;orthogonalLoop=1;jettySize=auto;html=1;entryX=0.5;entryY=0;entryDx=0;entryDy=0;exitX=0.5;exitY=0;exitDx=0;exitDy=0;fontStyle=1" edge="1" parent="1" source="amrkidjvkdgPa6vXR5mX-59" target="amrkidjvkdgPa6vXR5mX-65">
          <mxGeometry relative="1" as="geometry">
            <Array as="points">
              <mxPoint x="755" y="900" />
              <mxPoint x="870" y="900" />
            </Array>
          </mxGeometry>
        </mxCell>
        <mxCell id="amrkidjvkdgPa6vXR5mX-69" style="edgeStyle=orthogonalEdgeStyle;rounded=0;orthogonalLoop=1;jettySize=auto;html=1;entryX=0.5;entryY=0;entryDx=0;entryDy=0;exitX=0.5;exitY=0;exitDx=0;exitDy=0;fontStyle=1" edge="1" parent="1" source="amrkidjvkdgPa6vXR5mX-45" target="amrkidjvkdgPa6vXR5mX-51">
          <mxGeometry relative="1" as="geometry">
            <Array as="points">
              <mxPoint x="175" y="900" />
              <mxPoint x="485" y="900" />
            </Array>
          </mxGeometry>
        </mxCell>
        <mxCell id="amrkidjvkdgPa6vXR5mX-70" value="&lt;font color=&quot;#ff3333&quot;&gt;阈值：进入老年代&lt;/font&gt;" style="text;html=1;align=center;verticalAlign=middle;resizable=0;points=[];autosize=1;strokeColor=none;fillColor=none;fontStyle=1" vertex="1" parent="1">
          <mxGeometry x="710" y="1128" width="120" height="30" as="geometry" />
        </mxCell>
        <mxCell id="amrkidjvkdgPa6vXR5mX-73" value="" style="endArrow=classic;html=1;rounded=0;dashed=1;entryX=0.5;entryY=0.615;entryDx=0;entryDy=0;entryPerimeter=0;fontStyle=1" edge="1" parent="1" source="amrkidjvkdgPa6vXR5mX-70" target="amrkidjvkdgPa6vXR5mX-58">
          <mxGeometry width="50" height="50" relative="1" as="geometry">
            <mxPoint x="660" y="1150" as="sourcePoint" />
            <mxPoint x="710" y="1100" as="targetPoint" />
          </mxGeometry>
        </mxCell>
      </root>
    </mxGraphModel>
  </diagram>
</mxfile>
